<?xml version="1.0" encoding="utf-8"?>
<!-- Generator: Adobe Illustrator 16.2.1, SVG Export Plug-In . SVG Version: 6.00 Build 0)  -->
<!DOCTYPE svg PUBLIC "-//W3C//DTD SVG 1.1//EN" "http://www.w3.org/Graphics/SVG/1.1/DTD/svg11.dtd" [
	<!ENTITY ns_extend "http://ns.adobe.com/Extensibility/1.0/">
	<!ENTITY ns_ai "http://ns.adobe.com/AdobeIllustrator/10.0/">
	<!ENTITY ns_graphs "http://ns.adobe.com/Graphs/1.0/">
	<!ENTITY ns_vars "http://ns.adobe.com/Variables/1.0/">
	<!ENTITY ns_imrep "http://ns.adobe.com/ImageReplacement/1.0/">
	<!ENTITY ns_sfw "http://ns.adobe.com/SaveForWeb/1.0/">
	<!ENTITY ns_custom "http://ns.adobe.com/GenericCustomNamespace/1.0/">
	<!ENTITY ns_adobe_xpath "http://ns.adobe.com/XPath/1.0/">
]>
<svg version="1.1" id="Layer_2" xmlns:x="&ns_extend;" xmlns:i="&ns_ai;" xmlns:graph="&ns_graphs;"
	 xmlns="http://www.w3.org/2000/svg" xmlns:xlink="http://www.w3.org/1999/xlink" x="0px" y="0px" width="746.839px"
	 height="131.998px" viewBox="0 0 746.839 131.998" enable-background="new 0 0 746.839 131.998" xml:space="preserve">
<metadata>
	<sfw  xmlns="&ns_sfw;">
		<slices></slices>
		<sliceSourceBounds  height="131.998" width="746.841" x="138.081" y="254.501" bottomLeftOrigin="true"></sliceSourceBounds>
	</sfw>
</metadata>
<g>
	<path fill="#f3f8ff" d="M91.576,0H12.433C5.566,0,0,5.463,0,12.2v61.542c0,2.489,0.777,4.923,2.228,6.966l29.153,41.121
		c0.114,0.158,0.247,0.333,0.388,0.51c1.878,2.583,4.511,4.803,7.758,6.566c3.69,2.05,7.917,3.093,12.562,3.093
		c4.822,0,9.106-1.147,12.845-3.479c1.077-0.688,2.096-1.387,3.023-2.072c1.121-0.834,2.188-1.774,3.262-2.881
		c0.438-0.45,0.841-0.936,1.203-1.444l29.358-41.412c1.45-2.043,2.227-4.476,2.227-6.966V12.2C104.008,5.463,98.442,0,91.576,0z
		 M12.542,51.994h63.737v-9.772H12.542V20.02c0-2.242,0.663-4.092,1.992-5.552c1.328-1.51,3.318-2.268,5.976-2.268h71.066v10.398
		h-63.1v9.147h63.1v22.829c0,2.502-0.666,4.456-1.992,5.863c-1.327,1.303-3.32,1.954-5.975,1.954H12.542V51.994z M62.399,114.99
		c-0.586,0.626-1.232,1.198-1.937,1.72c-0.708,0.527-1.478,1.055-2.305,1.581c-1.608,1.002-3.632,1.507-6.068,1.507
		c-2.486,0-4.63-0.505-6.434-1.507c-1.851-1.006-3.167-2.103-3.947-3.301L12.467,73.742h15.206l24.417,34.073l24.343-34.073h15.206
		L62.399,114.99z"/>
	<g>
		<path fill="#f3f8ff" d="M172.167,42.307c1.071,0,2.318,0.072,3.747,0.214c1.427,0.145,2.907,0.339,4.443,0.589
			c1.535,0.251,3.087,0.535,4.658,0.856c1.57,0.321,3.033,0.661,4.39,1.018c1.141-2.641,2.035-5.316,2.677-8.03
			c0.642-2.712,1.106-5.247,1.392-7.602c-1.285-0.357-2.695-0.696-4.229-1.018c-1.536-0.321-3.105-0.589-4.711-0.803
			c-1.606-0.215-3.177-0.375-4.711-0.482c-1.536-0.107-2.875-0.16-4.016-0.16c-4.354,0-8.388,0.466-12.099,1.392
			c-3.712,0.929-6.924,2.374-9.636,4.336c-2.713,1.964-4.854,4.444-6.424,7.442c-1.571,2.997-2.355,6.567-2.355,10.706
			c0,3.212,0.589,5.926,1.767,8.137c1.178,2.214,2.623,4.105,4.337,5.675c1.713,1.571,3.604,2.908,5.675,4.015
			c2.069,1.109,3.961,2.179,5.674,3.214c1.713,1.033,3.158,2.125,4.336,3.264c1.178,1.144,1.767,2.57,1.767,4.283
			c0,1.928-0.555,3.5-1.66,4.713c-1.107,1.215-2.981,1.818-5.621,1.818c-1.285,0-2.713-0.123-4.283-0.376
			c-1.571-0.247-3.195-0.567-4.872-0.961c-1.678-0.392-3.319-0.875-4.925-1.446c-1.606-0.57-3.123-1.178-4.55-1.82
			c-2.5,5.212-4.355,10.423-5.568,15.633c1.641,0.715,3.373,1.357,5.193,1.927c1.82,0.573,3.675,1.019,5.567,1.341
			c1.891,0.318,3.729,0.567,5.514,0.747c1.784,0.179,3.462,0.27,5.033,0.27c3.996,0,7.815-0.481,11.456-1.446
			c3.64-0.962,6.815-2.443,9.528-4.441c2.712-2,4.872-4.516,6.478-7.551c1.606-3.033,2.409-6.619,2.409-10.761
			c0-3.21-0.589-5.922-1.767-8.138c-1.178-2.209-2.623-4.12-4.336-5.727c-1.713-1.606-3.605-2.963-5.675-4.069
			c-2.071-1.105-3.961-2.177-5.674-3.212c-1.713-1.034-3.158-2.104-4.336-3.212c-1.178-1.105-1.767-2.408-1.767-3.908
			c0-1.927,0.517-3.479,1.553-4.657C167.58,42.896,169.453,42.307,172.167,42.307z"/>
		<path fill="#f3f8ff" d="M300.647,64.576c0-6.994-1.552-12.312-4.658-15.953c-3.104-3.64-7.264-5.46-12.473-5.46
			c-2.286,0-4.409-0.402-6.372,0.132c-1.964,0.536-3.8-0.296-5.513,2.704h-0.857l4.711-26.205c-2.998,0-6.103,0.46-9.315,0.711
			c-3.212,0.25-6.067-0.026-8.565,0.33l-11.034,62.163h-6.311c-1.143,0-1.714,0.176-1.714-0.967c0-0.285,0.07-0.411,0.214-1.128
			l6.638-37.178c-2.997,0-6.067,0.165-9.208,0.308c-3.142,0.143-6.033,0.439-8.672,0.797l-6.853,39.101
			c-1.214,0.715-2.427,1.209-3.641,1.459s-2.32,0.381-3.318,0.381c-3.641,0-5.461-1.283-5.461-3.853
			c0-0.644,0.071-1.317,0.214-2.033l6.424-35.975c-2.997,0-6.068,0.072-9.208,0.216c-3.142,0.143-6.033,0.393-8.673,0.75
			l-6.638,37.794c-0.144,0.644-0.232,1.34-0.268,2.088c-0.037,0.748-0.054,1.409-0.054,1.979c0,4.928,1.338,8.566,4.015,10.921
			c2.677,2.356,6.513,3.534,11.51,3.534c2.784,0,5.461-1.297,8.031-2.938c2.569-1.642,4.673-4.256,6.316-6.256h0.75
			c0.643,2,2.016,5.239,4.123,6.633c2.104,1.392,5.156,2.325,9.154,2.325c3.068,0,5.729-0.614,7.977-2.075
			c1.576-1.024,2.765-2.626,3.587-4.896c2.767,2.339,6.187,4.132,10.278,5.304c4.353,1.248,8.814,1.89,13.383,1.89
			c8.636,0,15.488-2.474,20.557-7.436c5.067-4.96,8.422-11.896,10.065-20.818c0.285-1.568,0.498-3.104,0.642-4.603
			C300.576,66.823,300.647,65.576,300.647,64.576z M281.268,71.536c-0.5,2.855-1.107,5.212-1.82,7.066
			c-0.714,1.856-1.552,3.354-2.517,4.496c-0.963,1.144-2.053,1.944-3.264,2.407c-1.215,0.466-2.57,0.697-4.069,0.697
			c-0.856,0-1.82-0.087-2.891-0.269c-1.071-0.177-1.928-0.443-2.57-0.802l4.39-25.269c2.07-1.286,4.39-1.928,6.959-1.928
			c1.855,0,3.389,0.589,4.604,1.767c1.213,1.178,1.82,3.157,1.82,5.943C281.911,67.289,281.697,69.252,281.268,71.536z"/>
		<path fill="#f3f8ff" d="M343.26,39.095c3.427,0,6.157-0.979,8.192-2.944c2.033-1.963,3.051-4.551,3.051-7.763
			c0-2.069-0.68-3.908-2.035-5.514c-1.355-1.606-3.462-2.409-6.317-2.409c-3.497,0-6.282,1.054-8.351,3.159
			c-2.07,2.105-3.104,4.656-3.104,7.654c0,2.071,0.694,3.892,2.087,5.461C338.175,38.31,340.333,39.095,343.26,39.095z"/>
		<path fill="#f3f8ff" d="M463.603,43.163c-3.641,0-7.031,0.499-10.17,1.499c-3.143,1-5.926,2.606-8.354,4.818
			c-2.428,2.213-4.518,5.104-6.266,8.672c-1.75,3.571-3.051,7.888-3.904,12.955c-0.43,2.429-0.646,4.219-0.646,6.856
			c0,2.072,0.18,4.035,0.494,5.035h-5.418c-1.141,0-1.713,0.176-1.713-0.967c0-0.285,0.07-0.411,0.215-1.128l3.533-19.62
			c0.143-0.569,0.25-1.19,0.32-2.047c0.072-0.856,0.107-1.594,0.107-2.31c0-4.853-1.463-8.345-4.389-10.524
			c-2.928-2.177-6.64-3.252-11.138-3.252c-2.713,0-5.229,0.398-7.547,1.183c-2.319,0.786-4.838,2.287-7.55,4.5
			c-1-2.069-2.426-3.532-4.282-4.389c-1.856-0.856-4.213-1.283-7.065-1.283c-2.285,0-4.443,0.384-6.479,1.311
			c-2.033,0.929-4.158,1.525-6.369,4.525h-0.856l0.965-5.167c-2.928,0-5.998,0.132-9.208,0.308
			c-3.213,0.181-6.103-0.278-8.673,0.078l-6.903,38.781h-6.264c-1.144,0-1.714,0.176-1.714-0.967c0-0.285,0.07-1.028,0.215-1.744
			l6.53-37.289h-17.667l-6.531,37.238c-0.199,1.041-0.337,1.762-0.449,2.762h-6.188c-1.143,0-1.713,0.176-1.713-0.967
			c0-0.285,0.07-0.411,0.214-1.127l10.706-60.627c-2.998,0-6.102,0.22-9.314,0.469c-3.211,0.251-6.067,0.601-8.565,0.957
			l-10.493,59.873c-0.286,1.499-0.481,2.867-0.588,4.081s-0.16,2.399-0.16,3.538c0,3.998,1.07,7,3.212,8.996
			c2.141,1.998,5.603,3.002,10.386,3.002c3.068,0,5.728-0.732,7.977-2.194c2.159-1.405,3.603-3.99,4.347-7.731
			c0.318,2.977,1.34,5.293,3.094,6.931c2.142,1.995,5.603,2.997,10.385,2.997c3.069,0,5.729-0.733,7.978-2.194
			c1.005-0.653,1.848-2.14,2.547-3.3l-0.674,3.299h17.665l6.962-39.052c1.139-0.643,2.317-0.844,3.532-1.166
			c1.213-0.32,2.354-0.341,3.424-0.341c2.427,0,3.642,1.141,3.642,3.282c0,0.715-0.072,0.903-0.213,1.616l-6.316,35.661h17.666
			l6.959-38.946c0.998-0.712,2.088-0.951,3.266-1.271c1.18-0.32,2.264-0.341,3.266-0.341c2.711,0,4.068,1.141,4.068,3.282
			c0,0.357-0.037,0.858-0.107,1.427c-0.071,0.574-0.145,1.02-0.213,1.302l-2.998,17.14c-0.286,1.5-0.483,2.862-0.588,4.076
			c-0.108,1.214-0.162,2.393-0.162,3.533c0,3.998,1.07,6.996,3.214,8.996c2.141,1.996,5.602,2.998,10.384,2.998
			c3.068,0,5.73-0.733,7.979-2.194c2.248-1.464,3.729-4.192,4.443-8.19l0.381-2.248c1,2.725,2.473,5.031,4.436,6.904
			c3.996,3.819,9.994,5.729,17.988,5.729c1.285,0,2.783-0.071,4.498-0.213c1.713-0.146,3.479-0.395,5.299-0.752
			c1.82-0.354,3.641-0.765,5.461-1.229c1.818-0.464,3.479-1.02,4.979-1.659c0-2.498-0.127-5.176-0.375-8.03
			c-0.252-2.854-0.588-5.531-1.018-8.031c-1.215,0.644-2.535,1.217-3.961,1.714c-1.43,0.501-2.875,0.946-4.338,1.34
			c-1.463,0.392-2.889,0.694-4.283,0.907c-1.391,0.217-2.621,0.322-3.693,0.322c-3.211,0-5.424-0.481-6.637-1.446
			c-1.215-0.961-1.82-2.55-1.82-4.765c0-0.354,0.016-0.781,0.053-1.175c0.035-0.391,0.09-1.178,0.16-1.178h29.553
			c0.785-4,1.408-5.565,1.873-8.031c0.463-2.462,0.695-4.524,0.695-6.236c0-5.924-1.713-10.658-5.139-14.228
			C476.13,44.936,470.81,43.163,463.603,43.163z M467.189,64.128c-0.18,1.108-0.34-0.129-0.48,2.871h-12.207
			c0.645-6,1.643-7.099,3-8.813c1.355-1.713,3.031-2.639,5.029-2.639c1.643,0,2.873,0.465,3.695,1.463
			c0.82,1.001,1.23,2.445,1.23,4.229C467.457,62.026,467.367,63.024,467.189,64.128z"/>
		<path fill="#f3f8ff" d="M551.13,36.739c1.393,1.57,3.551,2.354,6.477,2.354c3.428,0,6.158-0.979,8.191-2.944
			c2.035-1.963,3.053-4.551,3.053-7.763c0-2.069-0.68-3.908-2.035-5.514c-1.357-1.606-3.463-2.409-6.316-2.409
			c-3.498,0-6.283,1.054-8.352,3.159c-1.385,1.407-2.295,3.019-2.754,4.823c-0.525-0.075-1.094-0.149-1.742-0.221
			c-1.643-0.178-3.373-0.321-5.193-0.429c-1.82-0.106-3.605-0.195-5.354-0.267c-1.75-0.07-3.195-0.107-4.336-0.107l-17.666,41.97
			c-0.359,1.002-0.732,1.859-1.125,3.396s-0.695,2.211-0.91,5.211h-1.285c0-1-0.018-2.551-0.053-4.408
			c-0.037-1.854-0.125-3.187-0.268-4.399l-2.143-32.231c-0.285-3.927-1.57-6.553-3.855-7.981c-2.285-1.427-5.033-2.114-8.244-2.114
			c-4.428,0-7.709,0.975-9.85,2.903c-2.143,1.928-3.533,4.154-4.178,7.864L482.445,41h5.354c1.998,0,3.105,1.11,3.318,3.251
			L497.648,99h20.344c5.852-10,11.617-22.778,17.291-34.77c4.932-10.421,9.619-20.563,14.092-30.986
			C549.707,34.407,550.269,35.768,551.13,36.739z"/>
		<path fill="#f3f8ff" d="M639.941,76.999h29.551c0.785-4,1.41-5.566,1.873-8.031c0.465-2.462,0.697-4.524,0.697-6.236
			c0-5.924-1.713-10.658-5.139-14.228c-3.428-3.567-8.744-5.347-15.953-5.347c-3.641,0-7.031,0.503-10.174,1.503
			c-3.141,1-5.924,2.608-8.348,4.819c-2.432,2.214-4.52,5.105-6.266,8.673c-1.752,3.57-3.053,7.889-3.908,12.955
			c-0.43,2.43-0.645,4.218-0.645,6.855c0,2.074,0.178,4.037,0.496,5.037h-5.848c-1.143,0-1.713,0.176-1.713-0.967
			c0-0.357,0.07-0.52,0.213-1.233l10.709-60.521c-3,0-6.086,0.22-9.264,0.469c-3.176,0.251-6.049,0.601-8.617,0.957l-3.963,22.506
			c-1.283-0.284-2.836-0.523-4.656-0.736c-1.82-0.215-3.303-0.316-4.445-0.316c-3.141,0-6.227,0.449-9.26,1.341
			c-3.035,0.894-5.836,2.448-8.404,4.661c-2.57,2.212-4.803,5.139-6.693,8.78c-1.889,3.641-3.303,8.245-4.229,13.812
			c-0.215,1.429-0.357,2.769-0.428,4.017c-0.072,1.25-0.107,1.808-0.107,3.162c0,1.697,0.09,3.07,0.27,4.07h-5.301
			c-1.143,0-1.713,0.176-1.713-0.967c0-0.285,0.07-1.028,0.213-1.744l6.533-37.289h-17.668l-6.529,37.984
			c-0.285,1.5-0.482,3.164-0.59,4.379c-0.105,1.214-0.162,2.543-0.162,3.684c0,4,1.072,7.076,3.213,9.073
			c2.145,1.999,5.604,3.036,10.389,3.036c3.064,0,5.729-0.715,7.977-2.176c2.248-1.463,3.729-4.184,4.441-8.182l0.221-1.29
			c0.678,2.263,1.611,4.261,2.83,5.954c2.748,3.82,7.156,5.729,13.223,5.729c2.998,0,5.711-1.17,8.139-2.062
			c2.426-0.892,4.818-4.132,7.174-6.132h0.855c1.141,2,2.66,5.152,4.551,6.08c1.891,0.926,4.084,1.754,6.584,1.754
			c3.068,0,5.691-0.555,7.871-2.016c2.176-1.465,3.621-4.101,4.336-8.1l0.568-3.306c0.986,3.207,2.566,5.912,4.785,8.028
			c3.996,3.82,9.99,5.74,17.984,5.74c1.283,0,2.783-0.064,4.498-0.207c1.715-0.145,3.479-0.393,5.301-0.75
			c1.82-0.354,3.641-0.762,5.461-1.227c1.818-0.465,3.479-1.018,4.977-1.658c0-2.498-0.125-5.176-0.373-8.031
			c-0.252-2.854-0.59-5.531-1.02-8.031c-1.213,0.645-2.533,1.218-3.959,1.715c-1.43,0.501-2.875,0.945-4.336,1.34
			c-1.465,0.391-2.895,0.693-4.285,0.906c-1.391,0.218-2.621,0.322-3.693,0.322c-3.211,0-5.426-0.48-6.639-1.445
			c-1.213-0.961-1.82-2.549-1.82-4.764c0-0.355,0.018-0.783,0.055-1.176C639.816,77.786,639.871,76.999,639.941,76.999z
			 M644.867,58.186c1.354-1.713,3.033-2.639,5.031-2.639c1.643,0,2.873,0.465,3.695,1.463c0.818,1.001,1.23,2.374,1.23,4.157
			c0,0.787-0.09,1.864-0.27,2.97c-0.178,1.108-0.34-0.139-0.479,2.861h-12.207C642.511,60.999,643.509,59.9,644.867,58.186z
			 M596.472,85.135c-1,0.427-1.998,0.748-2.996,0.962c-1.002,0.217-2.215,0.321-3.643,0.321c-1.855,0-3.283-0.567-4.281-1.713
			c-1.002-1.142-1.5-3.14-1.5-5.996c0-0.999,0.07-2.067,0.215-3.211c0.143-1.144,0.32-2.426,0.535-3.854
			c0.498-2.785,1.053-5.065,1.658-6.852c0.607-1.785,1.32-3.194,2.143-4.23c0.82-1.034,1.748-1.748,2.783-2.141
			c1.033-0.392,2.195-0.59,3.48-0.59c0.998,0,2.068,0.126,3.213,0.376c1.141,0.249,2.104,0.553,2.891,0.909L596.472,85.135z"/>
		<path fill="#f3f8ff" d="M718.636,48.409c-2.07-1.783-4.551-3.105-7.441-3.962c-2.891-0.857-6.086-1.284-9.582-1.284
			c-3.854,0-7.461,0.625-10.812,1.873c-3.354,1.25-6.354,3.07-8.994,5.461c-2.643,2.393-4.854,5.319-6.641,8.78
			c-1.783,3.462-3.068,7.406-3.854,11.83c-0.215,1.431-0.393,2.854-0.535,4.283c-0.145,1.43-0.215,2.75-0.215,3.961
			c0,7.424,2.053,12.922,6.156,16.489c4.105,3.57,9.832,5.354,17.186,5.354c3.639,0,7.137-0.627,10.492-1.873
			c3.355-1.248,6.371-3.055,9.049-5.407c2.676-2.356,4.979-5.265,6.904-8.726c1.928-3.463,3.281-7.442,4.07-11.938
			c0.213-1.286,0.391-2.66,0.533-4.124c0.143-1.461,0.215-2.799,0.215-4.015c0-3.854-0.572-7.154-1.715-9.903
			C722.312,52.461,720.705,50.194,718.636,48.409z M705.789,71.964c-1,5.283-2.32,9.085-3.961,11.403
			c-1.643,2.319-3.82,3.479-6.533,3.479c-1.926,0-3.391-0.535-4.389-1.607c-1.002-1.069-1.498-2.961-1.498-5.674
			c0-1.928,0.215-4.317,0.641-7.172c0.928-5.498,2.195-9.353,3.803-11.564c1.605-2.211,3.691-3.319,6.266-3.319
			c1.926,0,3.461,0.607,4.604,1.821c1.141,1.214,1.713,3.318,1.713,6.317C706.431,67.503,706.216,69.61,705.789,71.964z"/>
		<path fill="#f3f8ff" d="M746.365,38.991c-0.316-0.775-0.762-1.437-1.336-1.986c-0.576-0.55-1.262-0.97-2.062-1.262
			c-0.801-0.29-1.682-0.438-2.646-0.438c-1.268,0-2.424,0.242-3.475,0.725c-1.049,0.483-1.949,1.149-2.697,1.999
			c-0.75,0.85-1.33,1.849-1.75,2.998c-0.416,1.149-0.625,2.382-0.625,3.696c0,0.968,0.156,1.838,0.465,2.611
			c0.309,0.775,0.74,1.436,1.299,1.986c0.559,0.55,1.236,0.971,2.037,1.263c0.799,0.29,1.689,0.437,2.674,0.437
			c1.266,0,2.422-0.241,3.471-0.725c1.051-0.483,1.953-1.145,2.711-1.985c0.758-0.84,1.352-1.837,1.773-2.986
			c0.426-1.149,0.639-2.39,0.639-3.723C746.839,40.636,746.681,39.766,746.365,38.991z M745.328,45.037
			c-0.375,1.041-0.9,1.944-1.574,2.71c-0.676,0.767-1.479,1.37-2.41,1.812c-0.934,0.441-1.947,0.663-3.049,0.663
			c-0.916,0-1.725-0.139-2.422-0.413c-0.699-0.275-1.287-0.653-1.762-1.137c-0.475-0.484-0.838-1.069-1.088-1.761
			c-0.25-0.692-0.375-1.445-0.375-2.261c0-1.184,0.189-2.295,0.562-3.336c0.375-1.041,0.9-1.948,1.574-2.724
			c0.676-0.773,1.473-1.381,2.396-1.823c0.926-0.44,1.943-0.662,3.062-0.662c0.865,0,1.646,0.129,2.348,0.388
			c0.699,0.259,1.291,0.629,1.773,1.11c0.48,0.483,0.857,1.071,1.125,1.763c0.266,0.69,0.398,1.462,0.398,2.311
			C745.89,42.876,745.703,43.996,745.328,45.037z"/>
		<path fill="#f3f8ff" d="M742.642,40.878c0-0.883-0.271-1.512-0.812-1.887s-1.203-0.562-1.986-0.562
			c-0.383,0-0.766,0.013-1.146,0.038c-0.387,0.025-0.834,0.083-1.352,0.151l-1.674,9.381h1.15l0.699-5h1.699
			c0.215,0,0.424,1.075,0.623,1.45s0.418,1.157,0.65,1.806l0.5,1.633c0.217-0.017,0.424,0.033,0.625,0.016
			c0.199-0.016,0.389-0.015,0.574-0.065l-0.727-1.982c-0.184-0.499-0.385-0.923-0.6-1.29c-0.217-0.366-0.434-0.653-0.65-0.87
			c0.75-0.149,1.34-0.473,1.775-0.973C742.425,42.225,742.642,41.61,742.642,40.878z M740.769,42
			c-0.451,0.357-1.033-0.001-1.75-0.001h-1.324l0.625-3.06c0.232-0.032,0.471,0.217,0.713,0.208c0.24-0.01,0.461,0.122,0.662,0.122
			c0.531,0,0.957,0.175,1.273,0.392c0.316,0.216,0.475,0.356,0.475,0.889C741.443,41.314,741.218,41.641,740.769,42z"/>
	</g>
</g>
</svg>
